<svg width="18" height="15" viewBox="0 0 18 15" fill="none" xmlns="http://www.w3.org/2000/svg">
<g clip-path="url(#clip0)">
<path fill-rule="evenodd" clip-rule="evenodd" d="M5.5001 13.9333L10.6334 5.09998L0.600098 5.33331C0.600098 5.33331 2.4001 14.4666 2.63343 14.6C2.86676 14.7333 5.5001 13.9333 5.5001 13.9333Z" fill="#FFE241"/>
<path d="M6.54077 12.496L6.54077 6.96271H5.1741L5.1741 12.496H6.54077Z" fill="white"/>
<path d="M9.63208 12.4716L9.63208 6.93823H8.26541L8.26541 12.4716H9.63208Z" fill="white"/>
<path d="M12.7231 12.4804L12.7231 6.94711H11.3565L11.3565 12.4804H12.7231Z" fill="white"/>
<path d="M13.3667 4.43333L11.3667 0L10.1 0.566667L11.8333 4.43333H6.03333L7.76667 0.566667L6.53333 0L4.53333 4.43333H0V5.8L2.1 15H15.7667L17.8667 5.83333V4.46667H13.3667V4.43333ZM14.7 13.6333H3.2L1.4 5.8H16.4667L14.7 13.6333Z" fill="white"/>
</g>
<defs>
<clipPath id="clip0">
<rect width="17.9" height="15" fill="white"/>
</clipPath>
</defs>
</svg>
