<svg width="157" height="30" viewBox="0 0 157 30" fill="none" xmlns="http://www.w3.org/2000/svg">
<g clip-path="url(#clip0)">
<path d="M155.026 11.4841V16.3357L151.372 11.4841H150.083V18.5466H151.403V13.6643L155.057 18.5466H156.347V11.4841H155.026ZM143.635 12.5896C144.924 12.5896 145.999 13.6336 145.999 14.9847C145.999 16.3357 144.924 17.4105 143.635 17.4105C142.345 17.4105 141.24 16.3357 141.24 14.9847C141.24 13.6336 142.345 12.5896 143.635 12.5896ZM143.604 11.392C141.486 11.392 139.858 12.958 139.858 14.9847C139.858 17.042 141.486 18.608 143.604 18.608C145.723 18.608 147.35 17.0113 147.35 14.9847C147.381 12.958 145.754 11.392 143.604 11.392ZM135.805 11.4841V18.5466H137.156V11.4841H135.805ZM132.366 13.2958L132.919 12.129C132.244 11.6991 131.322 11.392 130.371 11.392C128.805 11.392 127.73 12.1904 127.73 13.4186C127.73 15.9673 131.507 15.1075 131.507 16.6121C131.507 17.1034 131.046 17.4105 130.309 17.4105C129.572 17.4105 128.59 17.0113 127.884 16.3664L127.331 17.5026C128.099 18.1781 129.173 18.6387 130.309 18.6387C131.875 18.6387 133.011 17.871 133.011 16.5507C133.011 14.0021 129.235 14.7697 129.235 13.3265C129.235 12.8966 129.634 12.651 130.279 12.651C130.8 12.5896 131.599 12.8352 132.366 13.2958ZM123.309 11.4841V18.5466H124.66V11.4841H123.309ZM113.852 11.4841L116.646 18.5466H118.058L120.883 11.4841H119.501L117.413 17.042L115.326 11.4841H113.852ZM109.277 11.4841H107.926L106.022 14.8004L104.088 11.4841H102.706L105.347 16.2743V18.5159H106.698V16.2129L109.277 11.4841ZM95.3677 11.4841V12.6817H97.5784V18.5466H98.9294V12.6817H101.14V11.4841H95.3677ZM88.6741 12.651H90.2708C91.284 12.651 91.8367 13.0809 91.8367 13.9406C91.8367 14.8311 91.284 15.261 90.2708 15.261H88.6741V12.651ZM93.2798 18.5466L91.7139 16.2129C92.635 15.8444 93.1263 15.0461 93.1263 13.9406C93.1263 12.3746 92.0823 11.5149 90.2708 11.5149H87.3232V18.5773H88.6741V16.4893H90.2708C90.3629 16.4893 90.455 16.4893 90.5164 16.4893L91.7446 18.5773H93.2798V18.5466ZM79.1251 11.4841V18.5466H84.4062V17.3797H80.4761V15.5988H83.915V14.4319H80.4761V12.6817H84.2834V11.5149H79.1251V11.4841ZM73.5983 15.261H72.1245V12.651H73.5983C74.6116 12.651 75.1642 13.0809 75.1642 13.9406C75.1949 14.8311 74.6116 15.261 73.5983 15.261ZM73.6904 11.4841H70.8042V18.5466H72.1552V16.4586H73.6904C75.4713 16.4586 76.4845 15.5067 76.4845 13.9099C76.4538 12.3439 75.4406 11.4841 73.6904 11.4841ZM64.3256 12.5896C65.6152 12.5896 66.6898 13.6336 66.6898 14.9847C66.6898 16.3357 65.6152 17.4105 64.3256 17.4105C63.036 17.4105 61.9307 16.3357 61.9307 14.9847C61.9307 13.6336 63.0053 12.5896 64.3256 12.5896ZM64.2949 11.392C62.1763 11.392 60.549 12.958 60.549 14.9847C60.549 17.042 62.1763 18.608 64.2949 18.608C66.4135 18.608 68.0408 17.0113 68.0408 14.9847C68.0408 12.958 66.4135 11.392 64.2949 11.392ZM53.6098 12.651H55.2064C56.2197 12.651 56.7723 13.0809 56.7723 13.9406C56.7723 14.8311 56.2197 15.261 55.2064 15.261H53.6098V12.651ZM58.2154 18.5466L56.6495 16.2129C57.5707 15.8444 58.0619 15.0461 58.0619 13.9406C58.0619 12.3746 57.018 11.5149 55.2064 11.5149H52.2588V18.5773H53.6098V16.4893H55.2064C55.2985 16.4893 55.3906 16.4893 55.4521 16.4893L56.6802 18.5773H58.2154V18.5466ZM46.7627 15.261H45.2889V12.651H46.7627C47.776 12.651 48.3286 13.0809 48.3286 13.9406C48.3286 14.8311 47.776 15.261 46.7627 15.261ZM46.8241 11.4841H43.9379V18.5466H45.2889V16.4586H46.8241C48.605 16.4586 49.6182 15.5067 49.6182 13.9099C49.6182 12.3439 48.605 11.4841 46.8241 11.4841Z" fill="white"/>
<path fill-rule="evenodd" clip-rule="evenodd" d="M9.85609 0L11.4834 0.951894L6.75496 9.15046H1.90367V20.8495H6.75496V22.7533H0V7.24667H5.6496L9.85609 0ZM12.4967 21.7093C16.2119 23.8588 20.9404 22.5691 23.0897 18.8843C25.2083 15.1689 23.9494 10.4401 20.2342 8.29069C16.5189 6.14125 11.7905 7.43091 9.64116 11.1157C7.52256 14.8311 8.81215 19.5599 12.4967 21.7093ZM16.3654 5.37359C21.6773 5.37359 26.0066 9.70317 26.0066 15.0154C26.0066 20.3275 21.708 24.6264 16.3654 24.6264C11.0536 24.6264 6.75496 20.3275 6.75496 15.0154C6.75496 9.70317 11.0536 5.37359 16.3654 5.37359ZM26.0066 7.24667H32.7615V22.7226H27.1119L22.9054 30L21.2781 29.0481L26.0066 20.8495H30.8579V9.15046H26.0066V7.24667Z" fill="white"/>
<path fill-rule="evenodd" clip-rule="evenodd" d="M20.2342 8.2907C16.5189 6.14126 11.7905 7.43092 9.64116 11.1157C7.49185 14.8311 8.78144 19.5599 12.466 21.7093L20.2342 8.2907Z" fill="#FFE241"/>
</g>
<defs>
<clipPath id="clip0">
<rect width="156.316" height="30" fill="white"/>
</clipPath>
</defs>
</svg>
