<svg width="26" height="25" viewBox="0 0 26 25" fill="none" xmlns="http://www.w3.org/2000/svg">
<path fill-rule="evenodd" clip-rule="evenodd" d="M7.80153 16.5395L10.9222 11.1651C10.9222 11.1651 6.93468 8.87656 6.83066 8.87656C6.72664 8.87656 6.65729 13.835 6.65729 13.835C6.65729 13.835 6.31055 15.638 6.3799 15.7074C6.44925 15.7767 7.80153 16.5395 7.80153 16.5395Z" fill="#FFE241"/>
<path fill-rule="evenodd" clip-rule="evenodd" d="M14.2856 17.4757L16.1233 10.1595C16.1233 10.1595 12.864 11.6852 12.76 11.7198C12.6559 11.7545 12.864 14.8752 12.864 14.8752C12.864 14.8752 12.5866 20.2843 12.968 18.4119C13.0027 18.3079 14.2856 17.4757 14.2856 17.4757Z" fill="#FFE241"/>
<path d="M25.0347 10.6449V6.31068H20.7004V8.04438H19.3828L18.8627 8.32178L12.9681 5.51318V4.33426H14.6671V0H10.3329V4.33426H12.0319V5.51318L6.17198 8.32178L5.65187 8.04438H4.33426V6.31068H0V10.6449H4.33426V9.01526H5.65187L6.17198 9.29265V15.6727L5.65187 15.9501H4.33426V14.251H0V18.5853H4.33426V16.9209H5.65187L6.69209 16.3662L12.0319 19.4175V20.6311H10.3329V24.9653H14.6671V20.6657H12.9681V19.4175L18.3079 16.3315L19.3481 16.8863H20.6657V18.5506H25V14.251H20.7004V15.9501H19.3828L18.8627 15.6727V9.29265L19.3828 9.01526H20.7004V10.6449H25.0347ZM11.6505 1.31761H13.3495V3.01664H11.6505V1.31761ZM3.01664 9.32732H1.31761V7.62829H3.01664V9.32732ZM3.01664 17.2677H1.31761V15.5687H3.01664V17.2677ZM13.3495 23.6824H11.6505V21.9834H13.3495V23.6824ZM22.018 15.5687H23.7171V17.2677H22.018V15.5687ZM12.5173 6.76144L16.7822 8.80721L12.5173 11.2691L9.53537 9.53537L8.25243 8.80721L12.5173 6.76144ZM11.8585 17.7878L7.4896 15.2913V9.88211L8.21775 10.2982L11.8585 12.4133V17.7878ZM17.5451 15.2913L13.1761 17.7878V12.3786L17.5451 9.84743V15.2913ZM22.018 7.62829H23.7171V9.32732H22.018V7.62829Z" fill="white"/>
</svg>
