<svg width="9" height="12" viewBox="0 0 9 12" fill="none" xmlns="http://www.w3.org/2000/svg">
<g clip-path="url(#clip0)">
<path d="M8.71096 10.6517L6.90422 7.65843C6.90422 7.65843 5.44804 8.38652 5.09748 8.60225C4.98961 8.65618 4.93568 8.65618 4.85478 8.57528C4.71995 8.41348 4.53118 8.30562 4.39635 8.14382C3.74916 7.41573 3.29074 6.57978 2.91321 5.68989C2.72444 5.25843 2.58961 4.8 2.53568 4.31461C2.53568 4.20674 2.53568 4.15281 2.64354 4.09888C2.99411 3.91011 4.34242 3.12809 4.34242 3.12809L2.75141 0C2.75141 0 1.2413 0.701124 0.890736 0.889888C0.56714 1.05169 0.35141 1.32135 0.216579 1.67191C0.000848251 2.21124 -0.026118 2.77753 0.0278145 3.37079C0.108713 4.58427 0.432309 5.71685 0.917702 6.82247C1.56489 8.30562 2.48175 9.62697 3.69523 10.7056C4.23456 11.191 4.82781 11.6225 5.52894 11.8921C6.01433 12.0539 6.47276 12.0539 6.93118 11.7843C7.22781 11.5955 8.71096 10.6517 8.71096 10.6517Z" fill="white"/>
</g>
<defs>
<clipPath id="clip0">
<rect width="8.71011" height="12" fill="white"/>
</clipPath>
</defs>
</svg>
