<svg width="40" height="40" viewBox="0 0 40 40" fill="none" xmlns="http://www.w3.org/2000/svg">
<path d="M39.6436 19.9693C37.9293 4.25498 26.0721 0.802602 20.3578 1.0407V19.9693L30.3578 36.0407C37.215 31.4693 39.4055 23.4216 39.6436 19.9693Z" fill="#FFE241"/>
<path d="M20 9.8193C16.2275 9.8193 12.4565 9.38481 8.79582 8.52688C8.42478 8.43999 8.19444 8.07033 8.28133 7.69792C8.36823 7.32826 8.72961 7.09792 9.11168 7.18343C17.102 9.05654 25.5944 8.82067 33.4951 6.49654C33.8675 6.39171 34.2455 6.59723 34.3517 6.96274C34.4593 7.32964 34.251 7.71171 33.8855 7.8193C29.3737 9.14619 24.702 9.8193 20 9.8193Z" fill="#1A1A1A"/>
<path d="M33.6897 33.5434C33.6248 33.5434 33.56 33.5338 33.4938 33.5145C24.7228 30.9338 15.2772 30.9338 6.50621 33.5145C6.13518 33.6179 5.75587 33.4138 5.64966 33.0483C5.54207 32.6814 5.75035 32.2993 6.11587 32.1917C15.1435 29.5352 24.8579 29.5352 33.8855 32.1917C34.251 32.2993 34.4593 32.6814 34.3517 33.0483C34.2635 33.3503 33.9876 33.5434 33.6897 33.5434Z" fill="#1A1A1A"/>
<path d="M19.1573 39.4428C19.0221 39.4428 18.8883 39.4041 18.7683 39.3228C12.3311 34.9296 8.48834 27.7062 8.48834 20C8.48834 13.7559 10.9449 7.87861 15.4083 3.45103C15.6801 3.1793 16.1173 3.18482 16.3835 3.45378C16.6525 3.72413 16.6497 4.16137 16.3808 4.42896C12.1808 8.59585 9.86765 14.1255 9.86765 20C9.86765 27.2496 13.4856 34.0483 19.5477 38.1834C19.8621 38.3972 19.9421 38.8276 19.7283 39.1421C19.5932 39.3379 19.3766 39.4428 19.1573 39.4428Z" fill="#1A1A1A"/>
<path d="M20.9022 39.4428C20.6829 39.4428 20.4663 39.3379 20.3325 39.1421C20.1187 38.8262 20.1987 38.3972 20.5132 38.1834C26.5753 34.0483 30.1932 27.2497 30.1932 20C30.1932 12.7503 26.5753 5.95173 20.5132 1.81656C20.1987 1.60276 20.1187 1.17242 20.3325 0.857936C20.5477 0.543453 20.9781 0.466212 21.2912 0.677246C27.7284 5.07035 31.5712 12.2938 31.5712 20C31.5712 27.7062 27.7284 34.9297 21.2912 39.3228C21.1725 39.4028 21.0374 39.4428 20.9022 39.4428Z" fill="#1A1A1A"/>
<path d="M20 39.2372C19.6193 39.2372 19.3103 38.9283 19.3103 38.5476V1.45241C19.3103 1.07172 19.6193 0.762756 20 0.762756C20.3806 0.762756 20.6896 1.07172 20.6896 1.45241V38.5476C20.6896 38.9296 20.3806 39.2372 20 39.2372Z" fill="#1A1A1A"/>
<path d="M39.2372 20.6896H3.52138C3.14069 20.6896 2.83173 20.3807 2.83173 20C2.83173 19.6193 3.14069 19.3103 3.52138 19.3103H39.2386C39.6193 19.3103 39.9283 19.6193 39.9283 20C39.9283 20.3807 39.6193 20.6896 39.2372 20.6896Z" fill="#1A1A1A"/>
<path d="M20 40C8.97241 40 0 31.0276 0 20C0 15.1434 1.76276 10.4566 4.96552 6.8069C5.21655 6.52 5.65103 6.49241 5.93931 6.74345C6.22483 6.99448 6.25241 7.43034 6.00276 7.71724C3.02207 11.1145 1.37931 15.4772 1.37931 20C1.37931 30.2676 9.73241 38.6207 20 38.6207C30.2676 38.6207 38.6207 30.2676 38.6207 20C38.6207 9.73241 30.2676 1.37931 20 1.37931C15.7545 1.37931 11.7572 2.76966 8.44276 5.4C8.14483 5.63724 7.71172 5.58896 7.47448 5.28828C7.23724 4.99034 7.2869 4.55724 7.58621 4.32C11.1462 1.49379 15.4386 0 20 0C31.0276 0 40 8.97241 40 20C40 31.0276 31.0276 40 20 40Z" fill="#1A1A1A"/>
</svg>
