<svg width="41" height="40" viewBox="0 0 41 40" fill="none" xmlns="http://www.w3.org/2000/svg">
<g clip-path="url(#clip0)">
<path fill-rule="evenodd" clip-rule="evenodd" d="M12.4825 26.4633L17.4756 17.8641C17.4756 17.8641 11.0956 14.2025 10.9291 14.2025C10.7627 14.2025 10.6517 22.1359 10.6517 22.1359C10.6517 22.1359 10.097 25.0208 10.2079 25.1318C10.3189 25.2427 12.4825 26.4633 12.4825 26.4633Z" fill="#FFE241"/>
<path fill-rule="evenodd" clip-rule="evenodd" d="M22.857 27.9612L25.7974 16.2552C25.7974 16.2552 20.5824 18.6962 20.416 18.7517C20.2496 18.8072 20.5824 23.8003 20.5824 23.8003C20.5824 23.8003 20.1386 32.4549 20.7489 29.4591C20.8043 29.2926 22.857 27.9612 22.857 27.9612Z" fill="#FFE241"/>
<path d="M40.0555 17.0319V10.0971H33.1207V12.871H31.0125L30.1803 13.3148L20.749 8.82108V6.93481H23.4674V0H16.5326V6.93481H19.251V8.82108L9.87517 13.3148L9.043 12.871H6.93481V10.0971H0V17.0319H6.93481V14.4244H9.043L9.87517 14.8682V25.0763L9.043 25.5201H6.93481V22.8017H0V29.7365H6.93481V27.0735H9.043L10.7074 26.1859L19.251 31.068V33.0097H16.5326V39.9445H23.4674V33.0652H20.749V31.068L29.2926 26.1304L30.957 27.018H33.0652V29.681H40V22.8017H33.1207V25.5201H31.0125L30.1803 25.0763V14.8682L31.0125 14.4244H33.1207V17.0319H40.0555ZM18.6408 2.10818H21.3592V4.82663H18.6408V2.10818ZM4.82663 14.9237H2.10818V12.2053H4.82663V14.9237ZM4.82663 27.6283H2.10818V24.9098H4.82663V27.6283ZM21.3592 37.8918H18.6408V35.1734H21.3592V37.8918ZM35.2288 24.9098H37.9473V27.6283H35.2288V24.9098ZM20.0277 10.8183L26.8516 14.0915L20.0277 18.0305L15.2566 15.2566L13.2039 14.0915L20.0277 10.8183ZM18.9736 28.4605L11.9834 24.466V15.8114L13.1484 16.4771L18.9736 19.8613V28.4605ZM28.0721 24.466L21.0818 28.4605V19.8058L28.0721 15.7559V24.466ZM35.2288 12.2053H37.9473V14.9237H35.2288V12.2053Z" fill="#1A1A1A"/>
</g>
<defs>
<clipPath id="clip0">
<rect width="40.0555" height="40" fill="white"/>
</clipPath>
</defs>
</svg>
